<svg xmlns="http://www.w3.org/2000/svg" version="1.1" xmlns:xlink="http://www.w3.org/1999/xlink" xmlns:svgjs="http://svgjs.dev/svgjs" width="128" height="128" viewBox="0 0 128 128"><g transform="matrix(0.8046875,0,0,0.8046875,12.221578124999994,40.69748550845708)"><svg viewBox="0 0 96 43" data-background-color="#ffffff" preserveAspectRatio="xMidYMid meet" height="57" width="128" xmlns="http://www.w3.org/2000/svg" xmlns:xlink="http://www.w3.org/1999/xlink"><g id="tight-bounds" transform="matrix(1,0,0,1,0.25950000000000273,0.34585926783380216)"><svg viewBox="0 0 95.481 42.308281464332396" height="42.308281464332396" width="95.481"><g><svg viewBox="0 0 95.481 42.308281464332396" height="42.308281464332396" width="95.481"><g><svg viewBox="0 0 95.481 42.308281464332396" height="42.308281464332396" width="95.481"><g id="textblocktransform"><svg viewBox="0 0 95.481 42.308281464332396" height="42.308281464332396" width="95.481" id="textblock"><g><svg viewBox="0 0 95.481 42.308281464332396" height="42.308281464332396" width="95.481"><g><svg viewBox="0 0 95.481 42.308281464332396" height="42.308281464332396" width="95.481"><g><svg xmlns="http://www.w3.org/2000/svg" xmlns:xlink="http://www.w3.org/1999/xlink" version="1.1" x="0" y="0" viewBox="4.8479921062144795 4.8647610050618 90.18201578757105 39.960265466023856" enable-background="new 0 0 100 49.571" xml:space="preserve" height="42.308281464332396" width="95.481" class="icon-icon-0" data-fill-palette-color="accent" id="icon-0"></svg></g></svg></g></svg></g></svg></g></svg></g></svg></g><defs></defs><mask id="a79b6fb1-dd56-4aa8-be5c-cbc257f6b970"><g id="SvgjsG1008"><svg viewBox="0 0 95.481 42.308281464332396" height="42.308281464332396" width="95.481"><g><svg viewBox="0 0 95.481 42.308281464332396" height="42.308281464332396" width="95.481"><g><svg viewBox="0 0 95.481 42.308281464332396" height="42.308281464332396" width="95.481"><g id="SvgjsG1007"><svg viewBox="0 0 95.481 42.308281464332396" height="42.308281464332396" width="95.481" id="SvgjsSvg1006"><g><svg viewBox="0 0 95.481 42.308281464332396" height="42.308281464332396" width="95.481"><g><svg viewBox="0 0 95.481 42.308281464332396" height="42.308281464332396" width="95.481"><g><svg xmlns="http://www.w3.org/2000/svg" xmlns:xlink="http://www.w3.org/1999/xlink" version="1.1" x="0" y="0" viewBox="4.8479921062144795 4.8647610050618 90.18201578757105 39.960265466023856" enable-background="new 0 0 100 49.571" xml:space="preserve" height="42.308281464332396" width="95.481" class="icon-icon-0" data-fill-palette-color="accent" id="SvgjsSvg1005"><g fill="white"><path d="M60.993 7.96A1.714 1.714 0 0 0 58.631 6.375L42.823 12.842A1.71 1.71 0 0 0 41.76 14.427V33.813A4.9 4.9 0 0 0 40.239 33.549C37.51 33.549 35.292 35.768 35.292 38.496S37.511 43.443 40.239 43.443C42.848 43.443 44.969 41.406 45.151 38.841 45.173 38.73 45.185 38.612 45.185 38.495V22.605L57.567 17.54V27.346A4.9 4.9 0 0 0 56.046 27.082C53.317 27.082 51.099 29.3 51.099 32.029S53.317 36.976 56.046 36.976C58.655 36.976 60.776 34.939 60.958 32.374A1.7 1.7 0 0 0 60.993 32.028zM57.567 10.511V12.714L45.185 17.779V15.576zM45.185 21.372V19.014L57.567 13.948V16.307z" fill="white"></path><g fill="white"><g fill="white"><path d="M29.26 33.002A2.44 2.44 0 0 1 27.541 32.297 11.08 11.08 0 0 1 24.226 24.363C24.226 22.055 24.924 19.84 26.247 17.957A2.443 2.443 0 0 1 30.245 20.765 6.23 6.23 0 0 0 29.111 24.363C29.111 26.05 29.772 27.635 30.976 28.822A2.444 2.444 0 0 1 29.26 33.002" fill="white"></path></g><g fill="white"><path d="M23.948 36.944A1.9 1.9 0 0 1 22.567 36.348 17.5 17.5 0 0 1 17.765 24.271C17.765 20.402 18.999 16.729 21.333 13.652A1.9 1.9 0 1 1 24.361 15.949 13.67 13.67 0 0 0 21.565 24.271C21.565 27.807 22.902 31.17 25.328 33.738A1.9 1.9 0 0 1 25.25 36.424 1.88 1.88 0 0 1 23.948 36.944" fill="white"></path></g><g fill="white"><path d="M18.637 40.883C18.271 40.883 17.904 40.735 17.635 40.444A24 24 0 0 1 11.308 24.184C11.308 18.772 13.062 13.663 16.382 9.405A1.358 1.358 0 0 1 18.522 11.075C15.578 14.85 14.02 19.383 14.02 24.184A21.27 21.27 0 0 0 19.636 38.608 1.36 1.36 0 0 1 18.637 40.883" fill="white"></path></g><g fill="white"><path d="M13.325 44.825A0.8 0.8 0 0 1 12.721 44.557 30.47 30.47 0 0 1 4.848 24.095C4.848 17.154 7.119 10.611 11.416 5.173A0.82 0.82 0 0 1 12.562 5.039 0.82 0.82 0 0 1 12.696 6.185C8.627 11.33 6.477 17.524 6.477 24.095A28.84 28.84 0 0 0 13.929 43.466 0.812 0.812 0 0 1 13.325 44.825" fill="white"></path></g></g><g fill="white"><g fill="white"><path d="M70.62 33.002C71.239 33.002 71.86 32.768 72.337 32.297A11.07 11.07 0 0 0 75.653 24.363C75.653 22.055 74.956 19.84 73.632 17.957A2.444 2.444 0 0 0 70.228 17.362 2.445 2.445 0 0 0 69.634 20.765 6.2 6.2 0 0 1 70.767 24.363C70.767 26.05 70.107 27.635 68.902 28.822A2.445 2.445 0 0 0 68.882 32.277 2.44 2.44 0 0 0 70.62 33.002" fill="white"></path></g><g fill="white"><path d="M75.93 36.944C76.436 36.944 76.936 36.743 77.311 36.348A17.5 17.5 0 0 0 82.112 24.271C82.112 20.402 80.878 16.729 78.544 13.652A1.899 1.899 0 1 0 75.517 15.949 13.66 13.66 0 0 1 78.312 24.271C78.312 27.807 76.976 31.17 74.55 33.738A1.9 1.9 0 0 0 74.628 36.424C74.995 36.772 75.461 36.944 75.93 36.944" fill="white"></path></g><g fill="white"><path d="M81.243 40.883C81.608 40.883 81.975 40.735 82.243 40.444A24 24 0 0 0 88.571 24.184C88.571 18.772 86.817 13.663 83.497 9.405A1.356 1.356 0 1 0 81.357 11.075 21.13 21.13 0 0 1 85.859 24.184 21.26 21.26 0 0 1 80.242 38.608 1.36 1.36 0 0 0 81.243 40.883" fill="white"></path></g><g fill="white"><path d="M86.553 44.825A0.8 0.8 0 0 0 87.157 44.557 30.47 30.47 0 0 0 95.03 24.095C95.03 17.154 92.759 10.611 88.462 5.173A0.82 0.82 0 0 0 87.317 5.039 0.817 0.817 0 0 0 87.184 6.185C91.252 11.33 93.401 17.524 93.401 24.095A28.84 28.84 0 0 1 85.95 43.466 0.814 0.814 0 0 0 86.553 44.825" fill="white"></path></g></g></g></svg></g></svg></g></svg></g></svg></g></svg></g></svg></g><defs><mask></mask></defs></svg><rect width="95.481" height="42.308281464332396" fill="black" stroke="none" visibility="hidden"></rect></g></mask><linearGradient x1="0" x2="1" y1="0.578" y2="0.595" id="5bba66c3-851d-4990-bb2d-53a998334e11"><stop stop-color="#6ee2f5" offset="0"></stop><stop stop-color="#6454f0" offset="1"></stop></linearGradient><rect width="95.481" height="42.308281464332396" fill="#000000" mask="url(#a79b6fb1-dd56-4aa8-be5c-cbc257f6b970)" data-fill-palette-color="accent"></rect></svg><rect width="95.481" height="42.308281464332396" fill="none" stroke="none" visibility="hidden"></rect></g></svg></g></svg>