<svg xmlns="http://www.w3.org/2000/svg" version="1.1" xmlns:xlink="http://www.w3.org/1999/xlink" xmlns:svgjs="http://svgjs.dev/svgjs" width="2000" height="328" viewBox="0 0 2000 328"><g transform="matrix(1,0,0,1,-1.2121212121212466,-0.1642892526685671)"><svg viewBox="0 0 396 65" data-background-color="#ffffff" preserveAspectRatio="xMidYMid meet" height="328" width="2000" xmlns="http://www.w3.org/2000/svg" xmlns:xlink="http://www.w3.org/1999/xlink"><g id="tight-bounds" transform="matrix(1,0,0,1,0.2400000000000091,0.0325573214129804)"><svg viewBox="0 0 395.52 64.93488535717402" height="64.93488535717402" width="395.52"><g><svg viewBox="0 0 659.7140314545181 108.30920054869092" height="64.93488535717402" width="395.52"><g transform="matrix(1,0,0,1,264.19403145451815,12.298012873427652)"><svg viewBox="0 0 395.5199999999999 83.71317480183562" height="83.71317480183562" width="395.5199999999999"><g id="textblocktransform"><svg viewBox="0 0 395.5199999999999 83.71317480183562" height="83.71317480183562" width="395.5199999999999" id="textblock"><g><svg viewBox="0 0 395.5199999999999 83.71317480183562" height="83.71317480183562" width="395.5199999999999"><g transform="matrix(1,0,0,1,0,0)"><svg width="395.5199999999999" viewBox="2.25 -36.21 175.55 37.160000000000004" height="83.71317480183562" data-palette-color="url(#751f0cb0-41b8-49dd-ab3b-a98cc7bb7413)"></svg></g></svg></g></svg></g></svg></g><g><svg viewBox="0 0 244.43135999999998 108.30920054869092" height="108.30920054869092" width="244.43135999999998"><g><svg xmlns="http://www.w3.org/2000/svg" xmlns:xlink="http://www.w3.org/1999/xlink" version="1.1" x="0" y="0" viewBox="4.8479921062144795 4.8647610050618 90.18201578757105 39.960265466023856" enable-background="new 0 0 100 49.571" xml:space="preserve" height="108.30920054869092" width="244.43135999999998" class="icon-icon-0" data-fill-palette-color="accent" id="icon-0"></svg></g></svg></g></svg></g><defs></defs><mask id="b14f1d37-9880-4b25-a21e-c0e48ef71b61"><g id="SvgjsG4684"><svg viewBox="0 0 395.52 64.93488535717402" height="64.93488535717402" width="395.52"><g><svg viewBox="0 0 659.7140314545181 108.30920054869092" height="64.93488535717402" width="395.52"><g transform="matrix(1,0,0,1,264.19403145451815,12.298012873427652)"><svg viewBox="0 0 395.5199999999999 83.71317480183562" height="83.71317480183562" width="395.5199999999999"><g id="SvgjsG4683"><svg viewBox="0 0 395.5199999999999 83.71317480183562" height="83.71317480183562" width="395.5199999999999" id="SvgjsSvg4682"><g><svg viewBox="0 0 395.5199999999999 83.71317480183562" height="83.71317480183562" width="395.5199999999999"><g transform="matrix(1,0,0,1,0,0)"><svg width="395.5199999999999" viewBox="2.25 -36.21 175.55 37.160000000000004" height="83.71317480183562" data-palette-color="url(#751f0cb0-41b8-49dd-ab3b-a98cc7bb7413)"><path d="M2.25-3.39L2.25-31.64Q2.25-32.5 2.39-33.13 2.54-33.76 2.95-34.19 3.37-34.62 4.1-34.84 4.83-35.06 6.01-35.06L6.01-35.06 16.89-35.06Q18.31-35.06 19.06-34.64 19.8-34.23 20.1-33.61 20.41-32.98 20.43-32.29 20.46-31.59 20.46-31.01L20.46-31.01 20.46-3.34Q22.14-3.59 23.58-3.78L23.58-3.78Q24.19-3.86 24.82-3.94 25.44-4.03 25.96-4.1 26.49-4.17 26.9-4.21 27.32-4.25 27.51-4.25L27.51-4.25Q27.93-4.25 28.19-4.09 28.44-3.93 28.44-3.44L28.44-3.44 28.44-1.2Q28.44-0.76 28.06-0.38 27.69 0 26.86 0L26.86 0 5.96 0Q4.81 0 4.09-0.22 3.37-0.44 2.95-0.85 2.54-1.27 2.39-1.9 2.25-2.54 2.25-3.39L2.25-3.39ZM18.38-3.08L18.38-31.45Q18.38-31.98 18.31-32.3 18.24-32.62 18.02-32.78 17.8-32.93 17.43-32.97 17.07-33.01 16.48-33.01L16.48-33.01 16.48-2.78 18.38-3.08ZM41.84-35.06L45.48-35.06Q45.92-35.06 46.24-34.95 46.56-34.84 46.81-34.57 47.07-34.3 47.29-33.86 47.51-33.42 47.75-32.79L47.75-32.79 58.96-2.86Q59.08-2.51 59.13-2.25 59.18-1.98 59.18-1.71L59.18-1.71Q59.18-0.83 58.65-0.42 58.13 0 57.54 0L57.54 0 43.7 0Q43.06 0 42.64-0.16 42.21-0.32 41.92-0.54 41.62-0.76 41.46-1 41.31-1.25 41.26-1.44L41.26-1.44 40.99-2.29 34.13-2.29 33.96-1.56Q33.88-1.2 33.79-0.92 33.69-0.63 33.54-0.43 33.4-0.22 33.14-0.11 32.88 0 32.47 0L32.47 0 29.95 0Q29.17 0 29.17-0.61L29.17-0.61Q29.17-0.83 29.26-1.14 29.34-1.44 29.49-1.86L29.49-1.86 39.69-32.74Q40.06-33.89 40.52-34.45 40.99-35.01 41.84-35.06L41.84-35.06ZM37.45-14.84L34.89-5.3 40.16-5.3 37.45-14.84ZM56.74-2.91L45.75-32.23Q45.55-32.74 45.27-32.87 44.99-33.01 44.31-33.01L44.31-33.01 43.45-33.01 55-2.05 56.17-2.05Q56.61-2.05 56.77-2.23 56.93-2.42 56.74-2.91L56.74-2.91ZM84.17-31.35L84.17-31.35Q83.64-31.35 83.04-31.18 82.44-31.01 81.86-30.52 81.27-30.03 80.72-29.16 80.17-28.3 79.77-26.88 79.37-25.46 79.12-23.45 78.88-21.44 78.88-18.65L78.88-18.65Q78.88-15.89 79.12-13.84 79.37-11.79 79.77-10.33 80.17-8.86 80.72-7.92 81.27-6.98 81.86-6.45 82.44-5.91 83.04-5.7 83.64-5.49 84.17-5.49L84.17-5.49Q84.91-5.49 85.54-5.81L85.54-5.81 85.54-15.16Q85.54-15.55 85.71-15.93 85.88-16.31 86.52-16.31L86.52-16.31 89.08-16.31Q89.3-16.31 89.52-16.28 89.74-16.26 89.91-16.15 90.08-16.04 90.18-15.81 90.28-15.58 90.28-15.16L90.28-15.16 90.28-1.15Q90.28-0.73 90.18-0.5 90.08-0.27 89.91-0.16 89.74-0.05 89.52-0.02 89.3 0 89.08 0L89.08 0 86.52 0Q86.2 0 86.02-0.1 85.83-0.2 85.72-0.37 85.62-0.54 85.58-0.74 85.54-0.95 85.54-1.15L85.54-1.15 85.54-1.86Q84.76-1.29 83.81-0.78 82.86-0.27 81.72 0.12 80.59 0.51 79.27 0.73 77.95 0.95 76.44 0.95L76.44 0.95Q74.65 0.95 72.77 0.63 70.89 0.32 69.12-0.5 67.35-1.32 65.77-2.73 64.18-4.15 63-6.32 61.81-8.5 61.12-11.54 60.42-14.58 60.42-18.65L60.42-18.65Q60.42-22.12 61.12-24.77 61.81-27.42 63.01-29.37 64.2-31.32 65.8-32.64 67.4-33.96 69.21-34.75 71.02-35.55 72.93-35.88 74.85-36.21 76.68-36.21L76.68-36.21Q78.68-36.21 80.49-35.89 82.29-35.57 83.8-35.08 85.3-34.59 86.47-33.98 87.64-33.37 88.4-32.79L88.4-32.79Q88.47-32.71 88.57-32.63 88.67-32.54 88.67-32.42L88.67-32.42Q88.67-32.32 88.59-32.18L88.59-32.18 87.54-30.52Q87.4-30.3 87.2-30.3L87.2-30.3Q87.06-30.3 86.8-30.46 86.54-30.62 86.15-30.82 85.76-31.03 85.27-31.19 84.79-31.35 84.17-31.35ZM74.75-18.65L74.75-18.65Q74.75-15.84 75.03-13.73 75.31-11.62 75.81-10.07 76.31-8.52 76.98-7.48 77.66-6.45 78.43-5.77 79.19-5.1 80.01-4.74 80.83-4.37 81.64-4.17L81.64-4.17Q81.37-4.32 80.9-4.65 80.44-4.98 79.89-5.62 79.34-6.25 78.79-7.28 78.24-8.3 77.79-9.85 77.34-11.4 77.06-13.56 76.78-15.72 76.78-18.65L76.78-18.65Q76.78-21.56 77.06-23.69 77.34-25.83 77.79-27.33 78.24-28.83 78.79-29.79 79.34-30.74 79.89-31.32 80.44-31.91 80.9-32.19 81.37-32.47 81.64-32.64L81.64-32.64Q80.83-32.45 80.01-32.12 79.19-31.79 78.43-31.16 77.66-30.54 76.98-29.57 76.31-28.59 75.81-27.1 75.31-25.61 75.03-23.54 74.75-21.46 74.75-18.65ZM121.38-33.91L121.38-12.62Q121.38-9.84 120.84-7.75 120.31-5.66 119.35-4.15 118.4-2.64 117.11-1.66 115.81-0.68 114.29-0.1 112.76 0.49 111.06 0.72 109.37 0.95 107.63 0.95L107.63 0.95Q105.97 0.95 104.33 0.74 102.68 0.54 101.2 0 99.72-0.54 98.45-1.49 97.18-2.44 96.26-3.96 95.33-5.47 94.8-7.59 94.28-9.72 94.28-12.62L94.28-12.62 94.28-31.64Q94.28-32.5 94.43-33.13 94.57-33.76 94.99-34.19 95.4-34.62 96.14-34.84 96.87-35.06 98.04-35.06L98.04-35.06 108.93-35.06Q110.34-35.06 111.09-34.64 111.83-34.23 112.14-33.61 112.44-32.98 112.47-32.29 112.49-31.59 112.49-31.01L112.49-31.01 112.49-3.64Q114.69-4.08 115.67-5.66 116.64-7.25 116.64-10.38L116.64-10.38 116.64-33.91Q116.64-34.33 116.83-34.69 117.01-35.06 117.64-35.06L117.64-35.06 120.18-35.06Q120.4-35.06 120.62-35.03 120.84-35.01 121.01-34.9 121.18-34.79 121.28-34.56 121.38-34.33 121.38-33.91L121.38-33.91ZM110.42-3.37L110.42-31.45Q110.42-31.98 110.34-32.3 110.27-32.62 110.05-32.78 109.83-32.93 109.47-32.97 109.1-33.01 108.51-33.01L108.51-33.01 108.51-3.37 110.42-3.37ZM125.87-3.39L125.87-31.64Q125.87-32.5 126.02-33.13 126.16-33.76 126.58-34.19 126.99-34.62 127.72-34.84 128.46-35.06 129.63-35.06L129.63-35.06 140.52-35.06Q141.93-35.06 142.68-34.64 143.42-34.23 143.73-33.61 144.03-32.98 144.06-32.29 144.08-31.59 144.08-31.01L144.08-31.01 144.08-3.96Q144.08-3.39 143.98-2.71 143.89-2.03 143.5-1.43 143.11-0.83 142.3-0.42 141.49 0 140.08 0L140.08 0 129.63 0Q128.46 0 127.72-0.22 126.99-0.44 126.58-0.85 126.16-1.27 126.02-1.9 125.87-2.54 125.87-3.39L125.87-3.39ZM142.01-3.61L142.01-31.45Q142.01-31.98 141.93-32.3 141.86-32.62 141.64-32.78 141.42-32.93 141.05-32.97 140.69-33.01 140.1-33.01L140.1-33.01 140.1-2.05Q140.69-2.05 141.05-2.09 141.42-2.12 141.64-2.28 141.86-2.44 141.93-2.75 142.01-3.05 142.01-3.61L142.01-3.61ZM173.67-35.06L176.6-35.06Q177.06-35.06 177.43-34.77 177.8-34.47 177.8-33.64L177.8-33.64 177.8-1.81Q177.8 0 176.09 0L176.09 0 167.61 0Q166.81 0 166.28-0.32 165.76-0.63 165.34-1.05L165.34-1.05 152.84-14.11Q153.06-10.94 153.28-8.28L153.28-8.28Q153.36-7.13 153.45-6.01 153.55-4.88 153.63-3.91 153.7-2.93 153.76-2.2 153.82-1.46 153.84-1.15L153.84-1.15Q153.89-0.73 153.71-0.37 153.53 0 152.87 0L152.87 0 149.79 0Q149.35 0 148.97-0.28 148.6-0.56 148.6-1.39L148.6-1.39 148.6-33.25Q148.6-35.06 150.6-35.06L150.6-35.06 158.85-35.06Q159.78-35.06 160.4-34.67 161.02-34.28 161.66-33.64L161.66-33.64 173.55-21.85Q173.3-24.76 173.11-27.22L173.11-27.22Q173.01-28.27 172.92-29.32 172.84-30.37 172.77-31.29 172.69-32.2 172.63-32.89 172.57-33.57 172.55-33.91L172.55-33.91Q172.5-34.3 172.7-34.68 172.91-35.06 173.67-35.06L173.67-35.06ZM173.55-18.9L159.97-32.35Q159.53-32.79 159.25-32.9 158.97-33.01 158.48-33.01L158.48-33.01 156.75-33.01 173.55-16.31 173.55-18.9Z" opacity="1" transform="matrix(1,0,0,1,0,0)" fill="white" class="wordmark-text-0" id="SvgjsPath4681"></path></svg></g></svg></g></svg></g></svg></g><g><svg viewBox="0 0 244.43135999999998 108.30920054869092" height="108.30920054869092" width="244.43135999999998"><g><svg xmlns="http://www.w3.org/2000/svg" xmlns:xlink="http://www.w3.org/1999/xlink" version="1.1" x="0" y="0" viewBox="4.8479921062144795 4.8647610050618 90.18201578757105 39.960265466023856" enable-background="new 0 0 100 49.571" xml:space="preserve" height="108.30920054869092" width="244.43135999999998" class="icon-icon-0" data-fill-palette-color="accent" id="SvgjsSvg4680"><g fill="black"><path d="M60.993 7.96A1.714 1.714 0 0 0 58.631 6.375L42.823 12.842A1.71 1.71 0 0 0 41.76 14.427V33.813A4.9 4.9 0 0 0 40.239 33.549C37.51 33.549 35.292 35.768 35.292 38.496S37.511 43.443 40.239 43.443C42.848 43.443 44.969 41.406 45.151 38.841 45.173 38.73 45.185 38.612 45.185 38.495V22.605L57.567 17.54V27.346A4.9 4.9 0 0 0 56.046 27.082C53.317 27.082 51.099 29.3 51.099 32.029S53.317 36.976 56.046 36.976C58.655 36.976 60.776 34.939 60.958 32.374A1.7 1.7 0 0 0 60.993 32.028zM57.567 10.511V12.714L45.185 17.779V15.576zM45.185 21.372V19.014L57.567 13.948V16.307z" fill="black"></path><g fill="black"><g fill="black"><path d="M29.26 33.002A2.44 2.44 0 0 1 27.541 32.297 11.08 11.08 0 0 1 24.226 24.363C24.226 22.055 24.924 19.84 26.247 17.957A2.443 2.443 0 0 1 30.245 20.765 6.23 6.23 0 0 0 29.111 24.363C29.111 26.05 29.772 27.635 30.976 28.822A2.444 2.444 0 0 1 29.26 33.002" fill="black"></path></g><g fill="black"><path d="M23.948 36.944A1.9 1.9 0 0 1 22.567 36.348 17.5 17.5 0 0 1 17.765 24.271C17.765 20.402 18.999 16.729 21.333 13.652A1.9 1.9 0 1 1 24.361 15.949 13.67 13.67 0 0 0 21.565 24.271C21.565 27.807 22.902 31.17 25.328 33.738A1.9 1.9 0 0 1 25.25 36.424 1.88 1.88 0 0 1 23.948 36.944" fill="black"></path></g><g fill="black"><path d="M18.637 40.883C18.271 40.883 17.904 40.735 17.635 40.444A24 24 0 0 1 11.308 24.184C11.308 18.772 13.062 13.663 16.382 9.405A1.358 1.358 0 0 1 18.522 11.075C15.578 14.85 14.02 19.383 14.02 24.184A21.27 21.27 0 0 0 19.636 38.608 1.36 1.36 0 0 1 18.637 40.883" fill="black"></path></g><g fill="black"><path d="M13.325 44.825A0.8 0.8 0 0 1 12.721 44.557 30.47 30.47 0 0 1 4.848 24.095C4.848 17.154 7.119 10.611 11.416 5.173A0.82 0.82 0 0 1 12.562 5.039 0.82 0.82 0 0 1 12.696 6.185C8.627 11.33 6.477 17.524 6.477 24.095A28.84 28.84 0 0 0 13.929 43.466 0.812 0.812 0 0 1 13.325 44.825" fill="black"></path></g></g><g fill="black"><g fill="black"><path d="M70.62 33.002C71.239 33.002 71.86 32.768 72.337 32.297A11.07 11.07 0 0 0 75.653 24.363C75.653 22.055 74.956 19.84 73.632 17.957A2.444 2.444 0 0 0 70.228 17.362 2.445 2.445 0 0 0 69.634 20.765 6.2 6.2 0 0 1 70.767 24.363C70.767 26.05 70.107 27.635 68.902 28.822A2.445 2.445 0 0 0 68.882 32.277 2.44 2.44 0 0 0 70.62 33.002" fill="black"></path></g><g fill="black"><path d="M75.93 36.944C76.436 36.944 76.936 36.743 77.311 36.348A17.5 17.5 0 0 0 82.112 24.271C82.112 20.402 80.878 16.729 78.544 13.652A1.899 1.899 0 1 0 75.517 15.949 13.66 13.66 0 0 1 78.312 24.271C78.312 27.807 76.976 31.17 74.55 33.738A1.9 1.9 0 0 0 74.628 36.424C74.995 36.772 75.461 36.944 75.93 36.944" fill="black"></path></g><g fill="black"><path d="M81.243 40.883C81.608 40.883 81.975 40.735 82.243 40.444A24 24 0 0 0 88.571 24.184C88.571 18.772 86.817 13.663 83.497 9.405A1.356 1.356 0 1 0 81.357 11.075 21.13 21.13 0 0 1 85.859 24.184 21.26 21.26 0 0 1 80.242 38.608 1.36 1.36 0 0 0 81.243 40.883" fill="black"></path></g><g fill="black"><path d="M86.553 44.825A0.8 0.8 0 0 0 87.157 44.557 30.47 30.47 0 0 0 95.03 24.095C95.03 17.154 92.759 10.611 88.462 5.173A0.82 0.82 0 0 0 87.317 5.039 0.817 0.817 0 0 0 87.184 6.185C91.252 11.33 93.401 17.524 93.401 24.095A28.84 28.84 0 0 1 85.95 43.466 0.814 0.814 0 0 0 86.553 44.825" fill="black"></path></g></g></g></svg></g></svg></g></svg></g><defs><mask></mask></defs></svg><rect width="395.52" height="64.93488535717402" fill="black" stroke="none" visibility="hidden"></rect></g></mask><linearGradient x1="0" x2="1" y1="0.578" y2="0.595" id="751f0cb0-41b8-49dd-ab3b-a98cc7bb7413"><stop stop-color="#6ee2f5" offset="0"></stop><stop stop-color="#6454f0" offset="1"></stop></linearGradient><rect width="395.52" height="64.93488535717402" fill="url(#751f0cb0-41b8-49dd-ab3b-a98cc7bb7413)" mask="url(#b14f1d37-9880-4b25-a21e-c0e48ef71b61)" data-fill-palette-color="primary"></rect><mask id="70a1302d-3a0e-4c05-b075-63a6f7fed3f9"><g id="SvgjsG4693"><svg viewBox="0 0 395.52 64.93488535717402" height="64.93488535717402" width="395.52"><g><svg viewBox="0 0 659.7140314545181 108.30920054869092" height="64.93488535717402" width="395.52"><g transform="matrix(1,0,0,1,264.19403145451815,12.298012873427652)"><svg viewBox="0 0 395.5199999999999 83.71317480183562" height="83.71317480183562" width="395.5199999999999"><g id="SvgjsG4692"><svg viewBox="0 0 395.5199999999999 83.71317480183562" height="83.71317480183562" width="395.5199999999999" id="SvgjsSvg4691"><g><svg viewBox="0 0 395.5199999999999 83.71317480183562" height="83.71317480183562" width="395.5199999999999"><g transform="matrix(1,0,0,1,0,0)"><svg width="395.5199999999999" viewBox="2.25 -36.21 175.55 37.160000000000004" height="83.71317480183562" data-palette-color="url(#751f0cb0-41b8-49dd-ab3b-a98cc7bb7413)"></svg></g></svg></g></svg></g></svg></g><g><svg viewBox="0 0 244.43135999999998 108.30920054869092" height="108.30920054869092" width="244.43135999999998"><g><svg xmlns="http://www.w3.org/2000/svg" xmlns:xlink="http://www.w3.org/1999/xlink" version="1.1" x="0" y="0" viewBox="4.8479921062144795 4.8647610050618 90.18201578757105 39.960265466023856" enable-background="new 0 0 100 49.571" xml:space="preserve" height="108.30920054869092" width="244.43135999999998" class="icon-icon-0" data-fill-palette-color="accent" id="SvgjsSvg4690"><g fill="white"><path d="M60.993 7.96A1.714 1.714 0 0 0 58.631 6.375L42.823 12.842A1.71 1.71 0 0 0 41.76 14.427V33.813A4.9 4.9 0 0 0 40.239 33.549C37.51 33.549 35.292 35.768 35.292 38.496S37.511 43.443 40.239 43.443C42.848 43.443 44.969 41.406 45.151 38.841 45.173 38.73 45.185 38.612 45.185 38.495V22.605L57.567 17.54V27.346A4.9 4.9 0 0 0 56.046 27.082C53.317 27.082 51.099 29.3 51.099 32.029S53.317 36.976 56.046 36.976C58.655 36.976 60.776 34.939 60.958 32.374A1.7 1.7 0 0 0 60.993 32.028zM57.567 10.511V12.714L45.185 17.779V15.576zM45.185 21.372V19.014L57.567 13.948V16.307z" fill="white"></path><g fill="white"><g fill="white"><path d="M29.26 33.002A2.44 2.44 0 0 1 27.541 32.297 11.08 11.08 0 0 1 24.226 24.363C24.226 22.055 24.924 19.84 26.247 17.957A2.443 2.443 0 0 1 30.245 20.765 6.23 6.23 0 0 0 29.111 24.363C29.111 26.05 29.772 27.635 30.976 28.822A2.444 2.444 0 0 1 29.26 33.002" fill="white"></path></g><g fill="white"><path d="M23.948 36.944A1.9 1.9 0 0 1 22.567 36.348 17.5 17.5 0 0 1 17.765 24.271C17.765 20.402 18.999 16.729 21.333 13.652A1.9 1.9 0 1 1 24.361 15.949 13.67 13.67 0 0 0 21.565 24.271C21.565 27.807 22.902 31.17 25.328 33.738A1.9 1.9 0 0 1 25.25 36.424 1.88 1.88 0 0 1 23.948 36.944" fill="white"></path></g><g fill="white"><path d="M18.637 40.883C18.271 40.883 17.904 40.735 17.635 40.444A24 24 0 0 1 11.308 24.184C11.308 18.772 13.062 13.663 16.382 9.405A1.358 1.358 0 0 1 18.522 11.075C15.578 14.85 14.02 19.383 14.02 24.184A21.27 21.27 0 0 0 19.636 38.608 1.36 1.36 0 0 1 18.637 40.883" fill="white"></path></g><g fill="white"><path d="M13.325 44.825A0.8 0.8 0 0 1 12.721 44.557 30.47 30.47 0 0 1 4.848 24.095C4.848 17.154 7.119 10.611 11.416 5.173A0.82 0.82 0 0 1 12.562 5.039 0.82 0.82 0 0 1 12.696 6.185C8.627 11.33 6.477 17.524 6.477 24.095A28.84 28.84 0 0 0 13.929 43.466 0.812 0.812 0 0 1 13.325 44.825" fill="white"></path></g></g><g fill="white"><g fill="white"><path d="M70.62 33.002C71.239 33.002 71.86 32.768 72.337 32.297A11.07 11.07 0 0 0 75.653 24.363C75.653 22.055 74.956 19.84 73.632 17.957A2.444 2.444 0 0 0 70.228 17.362 2.445 2.445 0 0 0 69.634 20.765 6.2 6.2 0 0 1 70.767 24.363C70.767 26.05 70.107 27.635 68.902 28.822A2.445 2.445 0 0 0 68.882 32.277 2.44 2.44 0 0 0 70.62 33.002" fill="white"></path></g><g fill="white"><path d="M75.93 36.944C76.436 36.944 76.936 36.743 77.311 36.348A17.5 17.5 0 0 0 82.112 24.271C82.112 20.402 80.878 16.729 78.544 13.652A1.899 1.899 0 1 0 75.517 15.949 13.66 13.66 0 0 1 78.312 24.271C78.312 27.807 76.976 31.17 74.55 33.738A1.9 1.9 0 0 0 74.628 36.424C74.995 36.772 75.461 36.944 75.93 36.944" fill="white"></path></g><g fill="white"><path d="M81.243 40.883C81.608 40.883 81.975 40.735 82.243 40.444A24 24 0 0 0 88.571 24.184C88.571 18.772 86.817 13.663 83.497 9.405A1.356 1.356 0 1 0 81.357 11.075 21.13 21.13 0 0 1 85.859 24.184 21.26 21.26 0 0 1 80.242 38.608 1.36 1.36 0 0 0 81.243 40.883" fill="white"></path></g><g fill="white"><path d="M86.553 44.825A0.8 0.8 0 0 0 87.157 44.557 30.47 30.47 0 0 0 95.03 24.095C95.03 17.154 92.759 10.611 88.462 5.173A0.82 0.82 0 0 0 87.317 5.039 0.817 0.817 0 0 0 87.184 6.185C91.252 11.33 93.401 17.524 93.401 24.095A28.84 28.84 0 0 1 85.95 43.466 0.814 0.814 0 0 0 86.553 44.825" fill="white"></path></g></g></g></svg></g></svg></g></svg></g><defs><mask></mask></defs><mask><g id="SvgjsG4689"><svg viewBox="0 0 395.52 64.93488535717402" height="64.93488535717402" width="395.52"><g><svg viewBox="0 0 659.7140314545181 108.30920054869092" height="64.93488535717402" width="395.52"><g transform="matrix(1,0,0,1,264.19403145451815,12.298012873427652)"><svg viewBox="0 0 395.5199999999999 83.71317480183562" height="83.71317480183562" width="395.5199999999999"><g id="SvgjsG4688"><svg viewBox="0 0 395.5199999999999 83.71317480183562" height="83.71317480183562" width="395.5199999999999" id="SvgjsSvg4687"><g><svg viewBox="0 0 395.5199999999999 83.71317480183562" height="83.71317480183562" width="395.5199999999999"><g transform="matrix(1,0,0,1,0,0)"><svg width="395.5199999999999" viewBox="2.25 -36.21 175.55 37.160000000000004" height="83.71317480183562" data-palette-color="url(#751f0cb0-41b8-49dd-ab3b-a98cc7bb7413)"><path d="M2.25-3.39L2.25-31.64Q2.25-32.5 2.39-33.13 2.54-33.76 2.95-34.19 3.37-34.62 4.1-34.84 4.83-35.06 6.01-35.06L6.01-35.06 16.89-35.06Q18.31-35.06 19.06-34.64 19.8-34.23 20.1-33.61 20.41-32.98 20.43-32.29 20.46-31.59 20.46-31.01L20.46-31.01 20.46-3.34Q22.14-3.59 23.58-3.78L23.58-3.78Q24.19-3.86 24.82-3.94 25.44-4.03 25.96-4.1 26.49-4.17 26.9-4.21 27.32-4.25 27.51-4.25L27.51-4.25Q27.93-4.25 28.19-4.09 28.44-3.93 28.44-3.44L28.44-3.44 28.44-1.2Q28.44-0.76 28.06-0.38 27.69 0 26.86 0L26.86 0 5.96 0Q4.81 0 4.09-0.22 3.37-0.44 2.95-0.85 2.54-1.27 2.39-1.9 2.25-2.54 2.25-3.39L2.25-3.39ZM18.38-3.08L18.38-31.45Q18.38-31.98 18.31-32.3 18.24-32.62 18.02-32.78 17.8-32.93 17.43-32.97 17.07-33.01 16.48-33.01L16.48-33.01 16.48-2.78 18.38-3.08ZM41.84-35.06L45.48-35.06Q45.92-35.06 46.24-34.95 46.56-34.84 46.81-34.57 47.07-34.3 47.29-33.86 47.51-33.42 47.75-32.79L47.75-32.79 58.96-2.86Q59.08-2.51 59.13-2.25 59.18-1.98 59.18-1.71L59.18-1.71Q59.18-0.83 58.65-0.42 58.13 0 57.54 0L57.54 0 43.7 0Q43.06 0 42.64-0.16 42.21-0.32 41.92-0.54 41.62-0.76 41.46-1 41.31-1.25 41.26-1.44L41.26-1.44 40.99-2.29 34.13-2.29 33.96-1.56Q33.88-1.2 33.79-0.92 33.69-0.63 33.54-0.43 33.4-0.22 33.14-0.11 32.88 0 32.47 0L32.47 0 29.95 0Q29.17 0 29.17-0.61L29.17-0.61Q29.17-0.83 29.26-1.14 29.34-1.44 29.49-1.86L29.49-1.86 39.69-32.74Q40.06-33.89 40.52-34.45 40.99-35.01 41.84-35.06L41.84-35.06ZM37.45-14.84L34.89-5.3 40.16-5.3 37.45-14.84ZM56.74-2.91L45.75-32.23Q45.55-32.74 45.27-32.87 44.99-33.01 44.31-33.01L44.31-33.01 43.45-33.01 55-2.05 56.17-2.05Q56.61-2.05 56.77-2.23 56.93-2.42 56.74-2.91L56.74-2.91ZM84.17-31.35L84.17-31.35Q83.64-31.35 83.04-31.18 82.44-31.01 81.86-30.52 81.27-30.03 80.72-29.16 80.17-28.3 79.77-26.88 79.37-25.46 79.12-23.45 78.88-21.44 78.88-18.65L78.88-18.65Q78.88-15.89 79.12-13.84 79.37-11.79 79.77-10.33 80.17-8.86 80.72-7.92 81.27-6.98 81.86-6.45 82.44-5.91 83.04-5.7 83.64-5.49 84.17-5.49L84.17-5.49Q84.91-5.49 85.54-5.81L85.54-5.81 85.54-15.16Q85.54-15.55 85.71-15.93 85.88-16.31 86.52-16.31L86.52-16.31 89.08-16.31Q89.3-16.31 89.52-16.28 89.74-16.26 89.91-16.15 90.08-16.04 90.18-15.81 90.28-15.58 90.28-15.16L90.28-15.16 90.28-1.15Q90.28-0.73 90.18-0.5 90.08-0.27 89.91-0.16 89.74-0.05 89.52-0.02 89.3 0 89.08 0L89.08 0 86.52 0Q86.2 0 86.02-0.1 85.83-0.2 85.72-0.37 85.62-0.54 85.58-0.74 85.54-0.95 85.54-1.15L85.54-1.15 85.54-1.86Q84.76-1.29 83.81-0.78 82.86-0.27 81.72 0.12 80.59 0.51 79.27 0.73 77.95 0.95 76.44 0.95L76.44 0.95Q74.65 0.95 72.77 0.63 70.89 0.32 69.12-0.5 67.35-1.32 65.77-2.73 64.18-4.15 63-6.32 61.81-8.5 61.12-11.54 60.42-14.58 60.42-18.65L60.42-18.65Q60.42-22.12 61.12-24.77 61.81-27.42 63.01-29.37 64.2-31.32 65.8-32.64 67.4-33.96 69.21-34.75 71.02-35.55 72.93-35.88 74.85-36.21 76.68-36.21L76.68-36.21Q78.68-36.21 80.49-35.89 82.29-35.57 83.8-35.08 85.3-34.59 86.47-33.98 87.64-33.37 88.4-32.79L88.4-32.79Q88.47-32.71 88.57-32.63 88.67-32.54 88.67-32.42L88.67-32.42Q88.67-32.32 88.59-32.18L88.59-32.18 87.54-30.52Q87.4-30.3 87.2-30.3L87.2-30.3Q87.06-30.3 86.8-30.46 86.54-30.62 86.15-30.82 85.76-31.03 85.27-31.19 84.79-31.35 84.17-31.35ZM74.75-18.65L74.75-18.65Q74.75-15.84 75.03-13.73 75.31-11.62 75.81-10.07 76.31-8.52 76.98-7.48 77.66-6.45 78.43-5.77 79.19-5.1 80.01-4.74 80.83-4.37 81.64-4.17L81.64-4.17Q81.37-4.32 80.9-4.65 80.44-4.98 79.89-5.62 79.34-6.25 78.79-7.28 78.24-8.3 77.79-9.85 77.34-11.4 77.06-13.56 76.78-15.72 76.78-18.65L76.78-18.65Q76.78-21.56 77.06-23.69 77.34-25.83 77.79-27.33 78.24-28.83 78.79-29.79 79.34-30.74 79.89-31.32 80.44-31.91 80.9-32.19 81.37-32.47 81.64-32.64L81.64-32.64Q80.83-32.45 80.01-32.12 79.19-31.79 78.43-31.16 77.66-30.54 76.98-29.57 76.31-28.59 75.81-27.1 75.31-25.61 75.03-23.54 74.75-21.46 74.75-18.65ZM121.38-33.91L121.38-12.62Q121.38-9.84 120.84-7.75 120.31-5.66 119.35-4.15 118.4-2.64 117.11-1.66 115.81-0.68 114.29-0.1 112.76 0.49 111.06 0.72 109.37 0.95 107.63 0.95L107.63 0.95Q105.97 0.95 104.33 0.74 102.68 0.54 101.2 0 99.72-0.54 98.45-1.49 97.18-2.44 96.26-3.96 95.33-5.47 94.8-7.59 94.28-9.72 94.28-12.62L94.28-12.62 94.28-31.64Q94.28-32.5 94.43-33.13 94.57-33.76 94.99-34.19 95.4-34.62 96.14-34.84 96.87-35.06 98.04-35.06L98.04-35.06 108.93-35.06Q110.34-35.06 111.09-34.64 111.83-34.23 112.14-33.61 112.44-32.98 112.47-32.29 112.49-31.59 112.49-31.01L112.49-31.01 112.49-3.64Q114.69-4.08 115.67-5.66 116.64-7.25 116.64-10.38L116.64-10.38 116.64-33.91Q116.64-34.33 116.83-34.69 117.01-35.06 117.64-35.06L117.64-35.06 120.18-35.06Q120.4-35.06 120.62-35.03 120.84-35.01 121.01-34.9 121.18-34.79 121.28-34.56 121.38-34.33 121.38-33.91L121.38-33.91ZM110.42-3.37L110.42-31.45Q110.42-31.98 110.34-32.3 110.27-32.62 110.05-32.78 109.83-32.93 109.47-32.97 109.1-33.01 108.51-33.01L108.51-33.01 108.51-3.37 110.42-3.37ZM125.87-3.39L125.87-31.64Q125.87-32.5 126.02-33.13 126.16-33.76 126.58-34.19 126.99-34.62 127.72-34.84 128.46-35.06 129.63-35.06L129.63-35.06 140.52-35.06Q141.93-35.06 142.68-34.64 143.42-34.23 143.73-33.61 144.03-32.98 144.06-32.29 144.08-31.59 144.08-31.01L144.08-31.01 144.08-3.96Q144.08-3.39 143.98-2.71 143.89-2.03 143.5-1.43 143.11-0.83 142.3-0.42 141.49 0 140.08 0L140.08 0 129.63 0Q128.46 0 127.72-0.22 126.99-0.44 126.58-0.85 126.16-1.27 126.02-1.9 125.87-2.54 125.87-3.39L125.87-3.39ZM142.01-3.61L142.01-31.45Q142.01-31.98 141.93-32.3 141.86-32.62 141.64-32.78 141.42-32.93 141.05-32.97 140.69-33.01 140.1-33.01L140.1-33.01 140.1-2.05Q140.69-2.05 141.05-2.09 141.42-2.12 141.64-2.28 141.86-2.44 141.93-2.75 142.01-3.05 142.01-3.61L142.01-3.61ZM173.67-35.06L176.6-35.06Q177.06-35.06 177.43-34.77 177.8-34.47 177.8-33.64L177.8-33.64 177.8-1.81Q177.8 0 176.09 0L176.09 0 167.61 0Q166.81 0 166.28-0.32 165.76-0.63 165.34-1.05L165.34-1.05 152.84-14.11Q153.06-10.94 153.28-8.28L153.28-8.28Q153.36-7.13 153.45-6.01 153.55-4.88 153.63-3.91 153.7-2.93 153.76-2.2 153.82-1.46 153.84-1.15L153.84-1.15Q153.89-0.73 153.71-0.37 153.53 0 152.87 0L152.87 0 149.79 0Q149.35 0 148.97-0.28 148.6-0.56 148.6-1.39L148.6-1.39 148.6-33.25Q148.6-35.06 150.6-35.06L150.6-35.06 158.85-35.06Q159.78-35.06 160.4-34.67 161.02-34.28 161.66-33.64L161.66-33.64 173.55-21.85Q173.3-24.76 173.11-27.22L173.11-27.22Q173.01-28.27 172.92-29.32 172.84-30.37 172.77-31.29 172.69-32.2 172.63-32.89 172.57-33.57 172.55-33.91L172.55-33.91Q172.5-34.3 172.7-34.68 172.91-35.06 173.67-35.06L173.67-35.06ZM173.55-18.9L159.97-32.35Q159.53-32.79 159.25-32.9 158.97-33.01 158.48-33.01L158.48-33.01 156.75-33.01 173.55-16.31 173.55-18.9Z" opacity="1" transform="matrix(1,0,0,1,0,0)" fill="black" class="wordmark-text-0" id="SvgjsPath4686"></path></svg></g></svg></g></svg></g></svg></g><g><svg viewBox="0 0 244.43135999999998 108.30920054869092" height="108.30920054869092" width="244.43135999999998"><g><svg xmlns="http://www.w3.org/2000/svg" xmlns:xlink="http://www.w3.org/1999/xlink" version="1.1" x="0" y="0" viewBox="4.8479921062144795 4.8647610050618 90.18201578757105 39.960265466023856" enable-background="new 0 0 100 49.571" xml:space="preserve" height="108.30920054869092" width="244.43135999999998" class="icon-icon-0" data-fill-palette-color="accent" id="SvgjsSvg4685"><g fill="black"><path d="M60.993 7.96A1.714 1.714 0 0 0 58.631 6.375L42.823 12.842A1.71 1.71 0 0 0 41.76 14.427V33.813A4.9 4.9 0 0 0 40.239 33.549C37.51 33.549 35.292 35.768 35.292 38.496S37.511 43.443 40.239 43.443C42.848 43.443 44.969 41.406 45.151 38.841 45.173 38.73 45.185 38.612 45.185 38.495V22.605L57.567 17.54V27.346A4.9 4.9 0 0 0 56.046 27.082C53.317 27.082 51.099 29.3 51.099 32.029S53.317 36.976 56.046 36.976C58.655 36.976 60.776 34.939 60.958 32.374A1.7 1.7 0 0 0 60.993 32.028zM57.567 10.511V12.714L45.185 17.779V15.576zM45.185 21.372V19.014L57.567 13.948V16.307z" fill="black"></path><g fill="black"><g fill="black"><path d="M29.26 33.002A2.44 2.44 0 0 1 27.541 32.297 11.08 11.08 0 0 1 24.226 24.363C24.226 22.055 24.924 19.84 26.247 17.957A2.443 2.443 0 0 1 30.245 20.765 6.23 6.23 0 0 0 29.111 24.363C29.111 26.05 29.772 27.635 30.976 28.822A2.444 2.444 0 0 1 29.26 33.002" fill="black"></path></g><g fill="black"><path d="M23.948 36.944A1.9 1.9 0 0 1 22.567 36.348 17.5 17.5 0 0 1 17.765 24.271C17.765 20.402 18.999 16.729 21.333 13.652A1.9 1.9 0 1 1 24.361 15.949 13.67 13.67 0 0 0 21.565 24.271C21.565 27.807 22.902 31.17 25.328 33.738A1.9 1.9 0 0 1 25.25 36.424 1.88 1.88 0 0 1 23.948 36.944" fill="black"></path></g><g fill="black"><path d="M18.637 40.883C18.271 40.883 17.904 40.735 17.635 40.444A24 24 0 0 1 11.308 24.184C11.308 18.772 13.062 13.663 16.382 9.405A1.358 1.358 0 0 1 18.522 11.075C15.578 14.85 14.02 19.383 14.02 24.184A21.27 21.27 0 0 0 19.636 38.608 1.36 1.36 0 0 1 18.637 40.883" fill="black"></path></g><g fill="black"><path d="M13.325 44.825A0.8 0.8 0 0 1 12.721 44.557 30.47 30.47 0 0 1 4.848 24.095C4.848 17.154 7.119 10.611 11.416 5.173A0.82 0.82 0 0 1 12.562 5.039 0.82 0.82 0 0 1 12.696 6.185C8.627 11.33 6.477 17.524 6.477 24.095A28.84 28.84 0 0 0 13.929 43.466 0.812 0.812 0 0 1 13.325 44.825" fill="black"></path></g></g><g fill="black"><g fill="black"><path d="M70.62 33.002C71.239 33.002 71.86 32.768 72.337 32.297A11.07 11.07 0 0 0 75.653 24.363C75.653 22.055 74.956 19.84 73.632 17.957A2.444 2.444 0 0 0 70.228 17.362 2.445 2.445 0 0 0 69.634 20.765 6.2 6.2 0 0 1 70.767 24.363C70.767 26.05 70.107 27.635 68.902 28.822A2.445 2.445 0 0 0 68.882 32.277 2.44 2.44 0 0 0 70.62 33.002" fill="black"></path></g><g fill="black"><path d="M75.93 36.944C76.436 36.944 76.936 36.743 77.311 36.348A17.5 17.5 0 0 0 82.112 24.271C82.112 20.402 80.878 16.729 78.544 13.652A1.899 1.899 0 1 0 75.517 15.949 13.66 13.66 0 0 1 78.312 24.271C78.312 27.807 76.976 31.17 74.55 33.738A1.9 1.9 0 0 0 74.628 36.424C74.995 36.772 75.461 36.944 75.93 36.944" fill="black"></path></g><g fill="black"><path d="M81.243 40.883C81.608 40.883 81.975 40.735 82.243 40.444A24 24 0 0 0 88.571 24.184C88.571 18.772 86.817 13.663 83.497 9.405A1.356 1.356 0 1 0 81.357 11.075 21.13 21.13 0 0 1 85.859 24.184 21.26 21.26 0 0 1 80.242 38.608 1.36 1.36 0 0 0 81.243 40.883" fill="black"></path></g><g fill="black"><path d="M86.553 44.825A0.8 0.8 0 0 0 87.157 44.557 30.47 30.47 0 0 0 95.03 24.095C95.03 17.154 92.759 10.611 88.462 5.173A0.82 0.82 0 0 0 87.317 5.039 0.817 0.817 0 0 0 87.184 6.185C91.252 11.33 93.401 17.524 93.401 24.095A28.84 28.84 0 0 1 85.95 43.466 0.814 0.814 0 0 0 86.553 44.825" fill="black"></path></g></g></g></svg></g></svg></g></svg></g><defs><mask></mask></defs></svg><rect width="395.52" height="64.93488535717402" fill="black" stroke="none" visibility="hidden"></rect></g></mask></svg><rect width="395.52" height="64.93488535717402" fill="black" stroke="none" visibility="hidden"></rect></g></mask><linearGradient x1="0" x2="1" y1="0.578" y2="0.595" id="42aca70e-2a0a-48ed-9b73-587ec415db65"><stop stop-color="#6ee2f5" offset="0"></stop><stop stop-color="#6454f0" offset="1"></stop></linearGradient><rect width="395.52" height="64.93488535717402" fill="url(#42aca70e-2a0a-48ed-9b73-587ec415db65)" mask="url(#70a1302d-3a0e-4c05-b075-63a6f7fed3f9)" data-fill-palette-color="accent"></rect></svg><rect width="395.52" height="64.93488535717402" fill="none" stroke="none" visibility="hidden"></rect></g></svg></g></svg>